<svg width="1200" height="800" viewBox="0 0 1200 800" fill="none" xmlns="http://www.w3.org/2000/svg">
  <rect width="1200" height="800" rx="40" fill="#0B1020"/>
  <rect x="40" y="40" width="1120" height="720" rx="28" fill="#0F172A" stroke="#22304A" stroke-width="2"/>
  <rect x="40" y="40" width="1120" height="72" rx="28" fill="#101A31"/>
  <circle cx="92" cy="76" r="10" fill="#46B8FF"/>
  <circle cx="124" cy="76" r="10" fill="#8B5CF6"/>
  <circle cx="156" cy="76" r="10" fill="#B47CFF"/>
  <rect x="860" y="60" width="232" height="30" rx="15" fill="#14213D"/>
  <rect x="86" y="164" width="248" height="436" rx="24" fill="url(#paint0_linear)"/>
  <rect x="366" y="164" width="748" height="84" rx="24" fill="#111D35"/>
  <rect x="400" y="194" width="248" height="18" rx="9" fill="#EDF4FF"/>
  <rect x="400" y="224" width="170" height="12" rx="6" fill="#8AA0C7"/>
  <rect x="366" y="280" width="356" height="132" rx="28" fill="#121F3B"/>
  <rect x="402" y="318" width="160" height="16" rx="8" fill="#EDF4FF"/>
  <rect x="402" y="348" width="210" height="12" rx="6" fill="#98A7C2"/>
  <rect x="756" y="280" width="358" height="132" rx="28" fill="#121F3B"/>
  <rect x="792" y="318" width="172" height="16" rx="8" fill="#EDF4FF"/>
  <rect x="792" y="348" width="228" height="12" rx="6" fill="#98A7C2"/>
  <rect x="366" y="444" width="748" height="156" rx="28" fill="#101A31"/>
  <rect x="402" y="484" width="198" height="18" rx="9" fill="#EDF4FF"/>
  <rect x="402" y="518" width="580" height="12" rx="6" fill="#91A3C3"/>
  <rect x="402" y="548" width="522" height="12" rx="6" fill="#91A3C3"/>
  <rect x="402" y="578" width="264" height="12" rx="6" fill="#91A3C3"/>
  <rect x="86" y="628" width="1028" height="64" rx="24" fill="#111D35"/>
  <rect x="120" y="652" width="224" height="16" rx="8" fill="#EDF4FF"/>
  <rect x="900" y="646" width="176" height="28" rx="14" fill="url(#paint1_linear)"/>
  <text x="122" y="214" fill="#FFFFFF" font-family="Segoe UI, Arial, sans-serif" font-size="34" font-weight="700">Access Bank Clone</text>
  <text x="122" y="258" fill="#D5E6FF" font-family="Segoe UI, Arial, sans-serif" font-size="18">Corporate site preview layout</text>
  <defs>
    <linearGradient id="paint0_linear" x1="86" y1="164" x2="334" y2="600" gradientUnits="userSpaceOnUse">
      <stop stop-color="#46B8FF"/>
      <stop offset="1" stop-color="#8B5CF6"/>
    </linearGradient>
    <linearGradient id="paint1_linear" x1="900" y1="646" x2="1076" y2="674" gradientUnits="userSpaceOnUse">
      <stop stop-color="#46B8FF"/>
      <stop offset="1" stop-color="#8B5CF6"/>
    </linearGradient>
  </defs>
</svg>
